<?xml version="1.0" standalone="no"?>
<!DOCTYPE svg PUBLIC "-//W3C//DTD SVG 20010904//EN"
 "http://www.w3.org/TR/2001/REC-SVG-20010904/DTD/svg10.dtd">
<svg version="1.0" xmlns="http://www.w3.org/2000/svg"
 width="128.000000pt" height="128.000000pt" viewBox="0 0 128.000000 128.000000"
 preserveAspectRatio="xMidYMid meet">

<g transform="translate(0.000000,128.000000) scale(0.100000,-0.100000)"
fill="#000000" stroke="none">
<path d="M95 821 c-44 -26 -65 -64 -77 -135 -14 -87 3 -166 47 -215 30 -32 39
-36 84 -36 39 0 56 5 73 22 21 22 21 23 3 43 -13 15 -21 17 -31 9 -26 -21 -68
-6 -86 31 -38 76 -13 221 40 228 13 2 29 -1 36 -7 9 -8 19 -4 36 14 l22 24
-33 20 c-42 26 -75 26 -114 2z"/>
<path d="M340 827 c-14 -6 -35 -32 -47 -57 -44 -85 -26 -272 30 -318 30 -25
80 -26 111 -1 36 28 53 68 61 145 10 89 -9 170 -50 211 -35 35 -64 41 -105 20z
m71 -87 c4 -14 7 -61 7 -105 0 -100 -8 -129 -35 -133 -27 -4 -34 15 -40 108
-7 98 9 163 40 158 13 -2 24 -13 28 -28z"/>
<path d="M860 827 c-14 -6 -35 -32 -47 -57 -44 -85 -26 -272 30 -318 30 -25
80 -26 111 -1 36 28 53 68 61 145 10 89 -9 170 -50 211 -35 35 -64 41 -105 20z
m71 -87 c9 -32 9 -178 0 -210 -8 -31 -45 -39 -56 -13 -14 35 -17 168 -6 211
10 36 16 43 34 40 13 -2 24 -13 28 -28z"/>
<path d="M540 636 l0 -196 63 0 c83 0 128 23 144 73 17 51 6 95 -28 116 l-27
17 24 23 c34 33 34 98 -2 132 -21 20 -38 24 -100 27 l-74 4 0 -196z m118 122
c15 -15 15 -61 0 -76 -26 -26 -38 -13 -38 38 0 51 12 64 38 38z m14 -162 c12
-17 9 -71 -4 -84 -7 -7 -20 -12 -30 -12 -15 0 -18 9 -18 61 0 58 1 60 23 53
12 -4 25 -12 29 -18z"/>
<path d="M1070 635 l0 -195 100 0 100 0 0 30 0 30 -60 0 -60 0 0 165 0 165
-40 0 -40 0 0 -195z"/>
</g>
</svg>
