<?xml version="1.0" standalone="no"?>
<!DOCTYPE svg PUBLIC "-//W3C//DTD SVG 20010904//EN"
 "http://www.w3.org/TR/2001/REC-SVG-20010904/DTD/svg10.dtd">
<svg version="1.0" xmlns="http://www.w3.org/2000/svg"
 width="690.000000pt" height="560.000000pt" viewBox="0 0 690.000000 560.000000"
 preserveAspectRatio="xMidYMid meet">

<g transform="translate(0.000000,560.000000) scale(0.100000,-0.100000)"
fill="#000000" stroke="none">
<path d="M3070 5135 c0 -25 26 -56 171 -199 244 -242 293 -310 345 -481 24
-81 27 -106 27 -245 1 -141 -2 -163 -27 -244 -48 -158 -143 -326 -279 -496
-77 -95 -315 -333 -430 -429 -48 -41 -85 -76 -83 -79 3 -2 49 22 102 54 298
177 708 365 1149 526 486 177 1261 386 1733 467 l153 26 -58 85 c-80 118 -236
271 -359 353 -311 206 -690 323 -1419 437 -185 29 -303 48 -605 100 -238 42
-371 85 -404 132 l-16 22 0 -29z m341 -169 l56 -16 43 -140 c23 -78 40 -143
38 -145 -2 -3 -24 26 -48 63 -25 37 -95 117 -156 178 l-112 111 62 -18 c33
-10 86 -25 117 -33z m268 -56 c86 -17 180 -36 209 -41 28 -6 52 -13 52 -17 -1
-4 -38 -28 -83 -55 -45 -26 -117 -77 -160 -114 -43 -36 -79 -64 -80 -62 -1 2
-21 58 -43 124 -23 66 -49 137 -58 158 -11 26 -13 37 -4 37 6 0 82 -14 167
-30z m345 -162 c15 -72 23 -278 10 -278 -12 0 -348 101 -353 106 -9 9 136 142
230 214 61 46 84 58 90 48 4 -7 14 -48 23 -90z m237 57 c272 -50 309 -58 309
-64 0 -3 -64 -38 -143 -78 -78 -40 -182 -97 -230 -127 -49 -31 -90 -56 -93
-56 -2 0 -4 20 -4 44 0 62 -27 207 -49 266 -18 47 -18 50 -1 50 9 0 104 -16
211 -35z m374 -122 c-16 -90 -134 -363 -169 -392 -7 -6 -59 14 -158 62 -81 40
-148 74 -148 77 0 14 449 290 474 290 4 0 5 -17 1 -37z m285 -35 c146 -47 352
-130 343 -138 -4 -4 -59 -19 -121 -34 -149 -36 -342 -96 -471 -146 -57 -22
-106 -39 -108 -36 -3 2 12 45 31 95 40 98 76 228 76 272 0 57 4 59 83 38 40
-11 115 -34 167 -51z m-1196 -183 c96 -25 246 -76 246 -84 0 -5 -28 -32 -62
-62 -35 -29 -97 -85 -138 -124 -117 -110 -107 -112 -106 23 1 64 -3 150 -7
190 -5 39 -5 72 -2 72 4 0 35 -7 69 -15z m1561 -37 c-54 -82 -409 -538 -419
-538 -2 0 -33 37 -69 83 -63 80 -138 156 -205 208 l-33 26 58 26 c192 86 674
254 692 240 2 -1 -9 -22 -24 -45z m162 -12 c108 -67 228 -161 331 -260 50 -49
92 -92 92 -96 0 -4 -42 -10 -92 -14 -175 -13 -554 -76 -781 -131 l-58 -14 78
82 c151 157 213 242 294 396 23 44 47 81 53 81 7 0 44 -20 83 -44z m-1152
-178 l69 -35 -73 -39 c-40 -22 -128 -70 -194 -108 -67 -38 -128 -71 -134 -73
-7 -3 7 37 31 88 24 52 53 130 66 174 12 44 24 83 27 87 3 7 64 -21 208 -94z
m-295 20 c-24 -84 -51 -152 -99 -245 -60 -116 -51 -112 -116 -58 -32 26 -69
52 -82 58 -13 6 -22 16 -21 22 5 20 311 284 330 285 4 0 -2 -28 -12 -62z m591
-205 c82 -59 217 -178 209 -185 -3 -2 -81 -26 -175 -53 -93 -27 -260 -80 -370
-118 -110 -38 -209 -71 -220 -74 -11 -3 43 59 120 138 122 125 286 324 302
366 6 16 14 12 134 -74z m-251 41 c0 -19 -331 -444 -379 -488 l-21 -19 0 44
c0 48 -18 122 -45 183 -9 21 -15 39 -13 41 22 19 436 245 451 245 4 0 7 -3 7
-6z m-677 -180 c18 -9 47 -27 65 -41 l32 -24 -130 -100 c-72 -54 -132 -99
-134 -99 -3 0 11 25 29 56 34 57 95 193 95 213 0 15 5 14 43 -5z m190 -176
c25 -44 64 -155 56 -162 -2 -2 -85 -36 -184 -76 -99 -40 -227 -95 -285 -122
-58 -27 -100 -45 -95 -40 6 6 57 47 114 92 123 98 237 206 306 289 28 33 53
61 57 61 3 0 17 -19 31 -42z m-183 -55 c-104 -115 -271 -255 -405 -339 l-30
-19 34 40 c18 22 60 73 93 112 47 56 94 96 206 173 80 55 149 100 154 100 6 0
-18 -30 -52 -67z"/>
<path d="M2001 1884 c-13 -17 -21 -41 -21 -65 0 -35 -3 -39 -25 -39 -18 0 -25
-5 -25 -20 0 -15 7 -20 25 -20 l25 0 0 -115 c0 -108 1 -115 20 -115 19 0 20 7
20 115 l0 115 30 0 c23 0 30 4 30 20 0 16 -7 20 -30 20 -27 0 -30 3 -30 34 0
40 22 66 56 66 15 0 24 6 24 15 0 11 -11 15 -39 15 -31 0 -44 -6 -60 -26z"/>
<path d="M564 1885 c-8 -19 3 -35 26 -35 19 0 30 17 23 38 -6 17 -42 15 -49
-3z"/>
<path d="M4332 1893 c13 -3 18 -18 21 -56 l3 -52 2 52 c2 40 6 53 20 56 9 3
-1 5 -23 5 -22 0 -32 -2 -23 -5z"/>
<path d="M4412 1843 c1 -55 2 -55 6 -13 l4 45 22 -43 22 -44 20 44 19 43 6
-45 6 -45 1 58 c1 31 -2 57 -7 57 -4 0 -16 -21 -26 -47 l-19 -48 -19 48 c-11
26 -23 47 -28 47 -5 0 -8 -26 -7 -57z"/>
<path d="M87 1884 c-4 -4 -7 -90 -7 -191 l0 -183 26 0 26 0 -4 155 c-1 85 -2
155 -2 155 1 0 33 -70 70 -155 44 -98 74 -154 82 -153 7 2 44 73 82 158 l69
155 1 -157 c0 -151 1 -158 20 -158 19 0 20 7 20 191 l0 190 -27 -3 c-28 -3
-48 -41 -144 -262 l-21 -49 -67 154 c-59 133 -71 154 -92 157 -14 2 -28 0 -32
-4z"/>
<path d="M2178 1852 c-13 -3 -18 -13 -18 -38 0 -30 -3 -34 -25 -34 -18 0 -25
-5 -25 -20 0 -15 7 -20 25 -20 l25 0 0 -100 c0 -87 3 -103 20 -120 20 -20 45
-25 74 -14 28 11 18 34 -13 34 -37 0 -41 12 -41 116 l0 84 35 0 c28 0 35 4 35
20 0 16 -7 20 -34 20 -33 0 -35 2 -38 38 -2 29 -7 37 -20 34z"/>
<path d="M2321 1804 c-12 -15 -21 -34 -21 -44 0 -19 36 -70 50 -70 5 0 -2 11
-15 25 -14 13 -25 34 -25 45 0 12 11 32 25 45 13 14 20 25 15 25 -5 0 -18 -12
-29 -26z"/>
<path d="M2423 1807 c12 -13 24 -22 26 -20 6 4 -30 43 -40 43 -5 0 2 -10 14
-23z"/>
<path d="M2351 1758 c1 -29 4 -43 6 -30 5 28 19 28 33 1 7 -11 14 -18 17 -16
2 3 0 14 -6 25 -7 13 -7 22 1 30 17 17 1 42 -27 42 -24 0 -25 -3 -24 -52z m45
31 c7 -12 -15 -31 -28 -23 -4 3 -8 12 -8 20 0 17 26 19 36 3z"/>
<path d="M570 1645 c0 -128 1 -135 20 -135 19 0 20 7 20 135 0 128 -1 135 -20
135 -19 0 -20 -7 -20 -135z"/>
<path d="M733 1756 c-42 -35 -57 -76 -51 -138 4 -42 11 -57 37 -80 38 -34 73
-44 120 -32 27 7 37 15 39 32 3 21 1 22 -17 13 -35 -19 -85 -13 -110 13 -77
82 13 227 110 175 18 -9 20 -8 17 13 -3 21 -9 23 -59 26 -48 2 -61 -1 -86 -22z"/>
<path d="M950 1645 c0 -128 1 -135 20 -135 18 0 20 7 20 89 0 103 19 141 71
141 22 0 29 5 29 20 0 31 -53 27 -79 -6 l-21 -27 0 27 c0 19 -5 26 -20 26 -19
0 -20 -7 -20 -135z"/>
<path d="M1153 1747 c-31 -29 -37 -41 -40 -88 -8 -100 53 -165 146 -156 112
12 158 172 71 250 -25 22 -39 27 -85 27 -49 0 -60 -4 -92 -33z m130 -8 c32
-14 47 -49 47 -105 0 -60 -32 -94 -88 -94 -119 0 -119 205 0 209 9 1 28 -4 41
-10z"/>
<path d="M1451 1757 c-34 -37 -26 -85 19 -114 72 -46 86 -60 74 -80 -13 -21
-65 -29 -94 -13 -18 9 -20 8 -20 -14 0 -21 6 -26 35 -32 68 -12 125 21 125 74
0 38 -11 51 -66 81 -59 31 -70 64 -29 83 20 9 34 9 56 1 28 -11 30 -10 27 10
-3 19 -10 22 -53 25 -43 2 -54 -1 -74 -21z"/>
<path d="M1698 1764 c-37 -20 -58 -63 -58 -121 0 -60 16 -91 59 -120 59 -40
143 -22 181 39 17 27 20 45 17 97 -3 57 -7 67 -35 92 -27 24 -41 29 -85 29
-28 -1 -64 -7 -79 -16z m127 -36 c15 -14 28 -38 32 -60 12 -78 -22 -128 -86
-128 -32 0 -44 6 -66 32 -54 65 -13 178 65 178 16 0 41 -10 55 -22z"/>
<path d="M2423 1713 c-12 -13 -19 -23 -14 -23 10 0 46 39 40 43 -2 2 -14 -7
-26 -20z"/>
<path d="M255 1386 c-131 -41 -208 -141 -209 -271 -1 -108 63 -192 222 -293
193 -122 237 -171 236 -259 0 -65 -22 -99 -85 -131 -67 -35 -176 -28 -286 20
-93 40 -93 41 -93 -59 0 -49 1 -52 33 -62 185 -60 342 -52 452 24 81 56 115
121 115 220 0 131 -57 203 -263 329 -96 59 -170 126 -187 166 -7 17 -10 48 -7
72 18 137 189 186 374 107 l43 -18 0 69 0 69 -52 16 c-63 18 -236 19 -293 1z"/>
<path d="M1111 1384 c-225 -60 -361 -260 -361 -530 0 -216 72 -383 206 -475
51 -35 150 -74 214 -84 64 -10 103 -40 200 -155 l84 -100 88 0 c49 0 88 3 88
8 0 4 -52 59 -115 122 -63 63 -115 120 -115 126 0 6 26 21 59 33 133 48 243
182 286 348 33 127 12 371 -41 475 -54 108 -155 192 -271 228 -79 24 -239 26
-322 4z m300 -123 c66 -25 139 -97 170 -167 43 -97 60 -252 40 -360 -27 -144
-95 -240 -203 -290 -57 -26 -74 -29 -168 -29 -98 0 -109 2 -158 29 -152 84
-227 264 -202 482 20 180 126 316 277 354 58 14 181 5 244 -19z"/>
<path d="M3009 1385 c-121 -39 -197 -130 -207 -250 -10 -130 41 -198 258 -341
105 -69 142 -100 168 -138 93 -139 -25 -277 -212 -246 -32 5 -93 25 -137 44
l-80 34 3 -76 3 -76 60 -20 c45 -15 89 -20 180 -20 109 -1 125 1 175 25 122
57 172 131 172 254 0 64 -4 82 -29 127 -34 60 -106 123 -229 198 -192 118
-239 201 -174 308 47 77 188 99 323 49 l67 -25 0 68 c0 68 0 68 -32 80 -52 20
-254 23 -309 5z"/>
<path d="M1930 850 l0 -540 285 0 285 0 0 65 0 65 -215 0 -215 0 0 475 0 475
-70 0 -70 0 0 -540z"/>
<path d="M3757 1090 c-179 -45 -287 -217 -274 -435 10 -167 71 -265 203 -327
107 -50 214 -49 357 3 l57 21 0 60 c0 44 -3 59 -12 55 -145 -64 -240 -81 -313
-57 -55 18 -118 86 -144 154 -39 104 -60 96 250 96 l272 0 -5 98 c-9 162 -66
266 -174 314 -52 22 -162 32 -217 18z m140 -121 c44 -16 81 -58 103 -116 37
-99 49 -93 -181 -93 l-201 0 7 33 c10 43 48 118 71 138 53 46 137 62 201 38z"/>
<path d="M5733 1090 c-118 -28 -221 -132 -258 -264 -13 -45 -16 -85 -13 -167
4 -96 8 -114 37 -173 89 -181 318 -244 538 -146 l43 19 0 59 0 59 -48 -24
c-99 -49 -198 -64 -273 -42 -79 24 -150 113 -165 208 l-7 41 273 0 273 0 -6
94 c-10 145 -49 233 -129 292 -62 46 -176 65 -265 44z m156 -125 c43 -22 79
-70 96 -127 8 -29 15 -55 15 -60 0 -4 -90 -8 -201 -8 l-201 0 7 33 c16 71 70
144 125 166 38 15 127 13 159 -4z"/>
<path d="M6732 1077 c-12 -13 -22 -27 -22 -31 0 -5 9 3 21 18 25 32 70 35 99
6 24 -24 26 -57 4 -90 l-16 -25 21 24 c28 31 26 66 -4 96 -31 32 -74 33 -103
2z"/>
<path d="M4535 1071 c-38 -17 -72 -49 -102 -97 -10 -16 -12 -9 -12 44 l-1 63
-67 -3 -68 -3 0 -380 0 -380 68 -3 67 -3 0 233 c0 128 5 249 10 268 36 129
140 194 246 153 11 -4 14 8 14 61 l0 66 -57 0 c-35 0 -75 -8 -98 -19z"/>
<path d="M6515 1076 c-32 -14 -104 -87 -107 -109 -1 -6 -4 15 -7 48 l-6 60
-67 3 -68 3 0 -386 0 -386 68 3 67 3 5 255 c5 238 6 258 27 296 46 86 121 126
196 106 20 -6 38 -7 41 -4 3 3 6 32 6 64 l0 58 -62 0 c-35 -1 -76 -7 -93 -14z"/>
<path d="M4770 970 c42 -117 213 -571 236 -627 14 -32 15 -33 78 -33 l63 0
149 376 c82 207 151 381 152 386 2 5 -25 8 -64 6 l-67 -3 -54 -145 c-94 -256
-166 -445 -174 -453 -7 -9 -9 -5 -132 353 l-85 245 -70 3 -71 3 39 -111z"/>
<path d="M6750 1025 c0 -25 5 -45 10 -45 6 0 10 10 10 23 l1 22 17 -21 c17
-20 17 -19 19 23 1 41 0 43 -28 43 -28 0 -29 -2 -29 -45z m50 20 c0 -8 -7 -15
-15 -15 -8 0 -15 7 -15 15 0 8 7 15 15 15 8 0 15 -7 15 -15z"/>
<path d="M6710 1001 c0 -24 40 -51 73 -49 l32 1 -32 4 c-20 3 -41 14 -53 30
-11 14 -20 21 -20 14z"/>
</g>
</svg>
