<?xml version="1.0" standalone="no"?>
<!DOCTYPE svg PUBLIC "-//W3C//DTD SVG 20010904//EN"
 "http://www.w3.org/TR/2001/REC-SVG-20010904/DTD/svg10.dtd">
<svg version="1.0" xmlns="http://www.w3.org/2000/svg"
 width="128.000000pt" height="128.000000pt" viewBox="0 0 128.000000 128.000000"
 preserveAspectRatio="xMidYMid meet">

<g transform="translate(0.000000,128.000000) scale(0.100000,-0.100000)"
fill="#000000" stroke="none">
<path d="M10 1117 c0 -13 175 -905 187 -955 5 -22 8 -23 126 -20 l121 3 98
490 c53 270 97 491 97 493 1 1 -44 2 -99 2 -79 0 -100 -3 -100 -14 0 -21 -89
-674 -100 -735 -12 -65 -16 -71 -24 -34 -7 34 -106 755 -106 771 0 8 -30 12
-100 12 -77 0 -100 -3 -100 -13z"/>
<path d="M730 635 l0 -497 163 5 c181 5 218 13 279 60 60 46 92 113 97 205 6
130 -27 199 -117 240 l-55 25 29 15 c78 39 114 103 114 202 0 74 -22 130 -66
172 -52 48 -104 60 -281 66 l-163 4 0 -497z m274 334 c35 -16 49 -58 44 -130
-4 -52 -9 -66 -32 -86 -17 -14 -40 -23 -62 -23 l-34 0 0 125 0 125 30 0 c16 0
40 -5 54 -11z m42 -413 c35 -35 39 -54 34 -146 -4 -73 -54 -120 -130 -120
l-30 0 0 150 0 150 46 0 c39 0 51 -5 80 -34z"/>
</g>
</svg>
